{
  "accessors": [
    {
      "bufferView": 1,
      "componentType": 5126,
      "count": 48,
      "max": [
        2.747981548309326,
        1.1081658601760864,
        5.1395745277404785
      ],
      "min": [
        -4.542038440704346,
        -1.5865474939346313,
        -8.625419511119371e-15
      ],
      "type": "VEC3"
    },
    {
      "bufferView": 1,
      "byteOffset": 576,
      "componentType": 5126,
      "count": 48,
      "max": [
        0.8694049715995789,
        0.9966121315956116,
        1.0
      ],
      "min": [
        -0.8393996953964233,
        -0.9965852499008179,
        -1.0
      ],
      "type": "VEC3"
    },
    {
      "bufferView": 0,
      "componentType": 5125,
      "count": 60,
      "type": "SCALAR"
    },
    {
      "bufferView": 1,
      "byteOffset": 1152,
      "componentType": 5126,
      "count": 72,
      "max": [
        2.747981548309326,
        5.457822799682617,
        6.987285614013672
      ],
      "min": [
        -6.415389060974121,
        -1.5865474939346313,
        0.0
      ],
      "type": "VEC3"
    },
    {
      "bufferView": 1,
      "byteOffset": 2016,
      "componentType": 5126,
      "count": 72,
      "max": [
        0.9879297614097595,
        0.8113588690757751,
        0.8964663743972778
      ],
      "min": [
        -0.8393996953964233,
        -0.9965852499008179,
        -1.0
      ],
      "type": "VEC3"
    },
    {
      "bufferView": 0,
      "byteOffset": 240,
      "componentType": 5125,
      "count": 90,
      "type": "SCALAR"
    },
    {
      "bufferView": 1,
      "byteOffset": 2880,
      "componentType": 5126,
      "count": 96,
      "max": [
        4.389622688293457,
        9.541923522949219,
        9.070450782775879
      ],
      "min": [
        -7.765244007110596,
        -1.5865474939346313,
        -1.2846428632776359e-14
      ],
      "type": "VEC3"
    },
    {
      "bufferView": 1,
      "byteOffset": 4032,
      "componentType": 5126,
      "count": 96,
      "max": [
        0.9649888873100281,
        0.9899846911430359,
        0.8964663147926331
      ],
      "min": [
        -0.9070717692375183,
        -0.9965852499008179,
        -1.0
      ],
      "type": "VEC3"
    },
    {
      "bufferView": 0,
      "byteOffset": 600,
      "componentType": 5125,
      "count": 120,
      "type": "SCALAR"
    },
    {
      "bufferView": 1,
      "byteOffset": 5184,
      "componentType": 5126,
      "count": 96,
      "max": [
        3.6432361602783203,
        6.286149978637695,
        5.6055684089660645
      ],
      "min": [
        -5.21848726272583,
        -1.9817028045654297,
        0.0
      ],
      "type": "VEC3"
    },
    {
      "bufferView": 1,
      "byteOffset": 6336,
      "componentType": 5126,
      "count": 96,
      "max": [
        0.8605184555053711,
        0.9426817297935486,
        0.9113551378250122
      ],
      "min": [
        -0.9739730954170227,
        -0.9942740201950073,
        -1.0
      ],
      "type": "VEC3"
    },
    {
      "bufferView": 0,
      "byteOffset": 1080,
      "componentType": 5125,
      "count": 120,
      "type": "SCALAR"
    }
  ],
  "asset": {
    "extras": {
      "author": "Anskar (https://sketchfab.com/Anskar)",
      "license": "CC-BY-4.0 (http://creativecommons.org/licenses/by/4.0/)",
      "source": "https://sketchfab.com/3d-models/low-poly-grass-pack-2ffb4d5302c14d038eaf6488b8c7ede2",
      "title": "Low Poly Grass Pack"
    },
    "generator": "Sketchfab-12.68.0",
    "version": "2.0"
  },
  "bufferViews": [
    {
      "buffer": 0,
      "byteLength": 1560,
      "name": "floatBufferViews",
      "target": 34963
    },
    {
      "buffer": 0,
      "byteLength": 7488,
      "byteOffset": 1560,
      "byteStride": 12,
      "name": "floatBufferViews",
      "target": 34962
    }
  ],
  "buffers": [
    {
      "byteLength": 9048,
      "uri": "scene.bin"
    }
  ],
  "materials": [
    {
      "doubleSided": true,
      "name": "Grass",
      "pbrMetallicRoughness": {
        "baseColorFactor": [
          0.0257092,
          0.399547,
          0.135453,
          1.0
        ],
        "metallicFactor": 0.0,
        "roughnessFactor": 0.8239417257461427
      }
    }
  ],
  "meshes": [
    {
      "name": "Circle.018_Grass_0",
      "primitives": [
        {
          "attributes": {
            "NORMAL": 1,
            "POSITION": 0
          },
          "indices": 2,
          "material": 0,
          "mode": 4
        }
      ]
    },
    {
      "name": "Circle.015_Grass_0",
      "primitives": [
        {
          "attributes": {
            "NORMAL": 4,
            "POSITION": 3
          },
          "indices": 5,
          "material": 0,
          "mode": 4
        }
      ]
    },
    {
      "name": "Circle.012_Grass_0",
      "primitives": [
        {
          "attributes": {
            "NORMAL": 7,
            "POSITION": 6
          },
          "indices": 8,
          "material": 0,
          "mode": 4
        }
      ]
    },
    {
      "name": "Circle.005_Grass_0",
      "primitives": [
        {
          "attributes": {
            "NORMAL": 10,
            "POSITION": 9
          },
          "indices": 11,
          "material": 0,
          "mode": 4
        }
      ]
    }
  ],
  "nodes": [
    {
      "children": [
        1
      ],
      "matrix": [
        1.0,
        0.0,
        0.0,
        0.0,
        0.0,
        2.220446049250313e-16,
        -1.0,
        0.0,
        0.0,
        1.0,
        2.220446049250313e-16,
        0.0,
        0.0,
        0.0,
        0.0,
        1.0
      ],
      "name": "Sketchfab_model"
    },
    {
      "children": [
        2
      ],
      "matrix": [
        1.0,
        0.0,
        0.0,
        0.0,
        0.0,
        0.0,
        1.0,
        0.0,
        0.0,
        -1.0,
        0.0,
        0.0,
        0.0,
        0.0,
        0.0,
        1.0
      ],
      "name": "Low poly Grass pack.fbx"
    },
    {
      "children": [
        3,
        5,
        7,
        9
      ],
      "name": "RootNode"
    },
    {
      "children": [
        4
      ],
      "matrix": [
        3.6970768515338905,
        0.0,
        -1.2651343489160392,
        0.0,
        -1.265134348916038,
        -1.7080441519489015e-07,
        -3.6970768515338874,
        0.0,
        -7.35119424620792e-08,
        5.194348812103267,
        -2.1482248222433346e-07,
        0.0,
        56.81500244140625,
        1.1202375389984809e-05,
        128.3730926513672,
        1.0
      ],
      "name": "Circle.018"
    },
    {
      "mesh": 0,
      "name": "Circle.018_Grass_0"
    },
    {
      "children": [
        6
      ],
      "matrix": [
        2.136378969938211,
        -1.7499818480793073e-16,
        -2.318201766766129,
        0.0,
        -2.3182017667661228,
        2.380061496493912e-07,
        -2.1363789699382054,
        0.0,
        3.176404826394158e-07,
        5.721409797668441,
        2.927270852584783e-07,
        0.0,
        -55.146026611328125,
        1.1229555639147293e-05,
        133.24630737304688,
        1.0
      ],
      "name": "Circle.015"
    },
    {
      "mesh": 1,
      "name": "Circle.015_Grass_0"
    },
    {
      "children": [
        8
      ],
      "matrix": [
        1.1181302266559867,
        4.409205654735027e-16,
        -3.8108102120930933,
        0.0,
        -3.810810212093021,
        7.732716939606162e-07,
        -1.1181302266559654,
        0.0,
        1.3466323977949464e-06,
        7.207752704620224,
        3.9511555543237446e-07,
        0.0,
        62.16468811035156,
        1.1202375389984809e-05,
        1.2975692749023438,
        1.0
      ],
      "name": "Circle.012"
    },
    {
      "mesh": 2,
      "name": "Circle.012_Grass_0"
    },
    {
      "children": [
        10
      ],
      "matrix": [
        4.599221014456075,
        7.981051313037275e-18,
        -0.11909999036569721,
        0.0,
        -0.11909999036569689,
        3.4734793128025155e-07,
        -4.599221014456063,
        0.0,
        1.7859335530972882e-08,
        9.137945175170874,
        6.896644663441469e-07,
        0.0,
        -54.61158752441406,
        1.1202375389984809e-05,
        6.673669815063477,
        1.0
      ],
      "name": "Circle.005"
    },
    {
      "mesh": 3,
      "name": "Circle.005_Grass_0"
    }
  ],
  "scene": 0,
  "scenes": [
    {
      "name": "Sketchfab_Scene",
      "nodes": [
        0
      ]
    }
  ]
}
