{
  "accessors": [
    {
      "bufferView": 1,
      "componentType": 5126,
      "count": 162,
      "max": [
        0.984346866607666,
        0.8903168439865112,
        0.977421224117279
      ],
      "min": [
        -1.083258032798767,
        -0.7077707052230835,
        -1.1663986444473267
      ],
      "type": "VEC3"
    },
    {
      "bufferView": 1,
      "byteOffset": 1944,
      "componentType": 5126,
      "count": 162,
      "max": [
        0.9767202734947205,
        0.9936974048614502,
        0.8923468589782715
      ],
      "min": [
        -0.8696088790893555,
        -0.9923253059387207,
        -0.9936115145683289
      ],
      "type": "VEC3"
    },
    {
      "bufferView": 0,
      "componentType": 5125,
      "count": 162,
      "type": "SCALAR"
    }
  ],
  "asset": {
    "extras": {
      "author": "Gregamo (https://sketchfab.com/Nashrath)",
      "license": "CC-BY-4.0 (http://creativecommons.org/licenses/by/4.0/)",
      "source": "https://sketchfab.com/3d-models/low-poly-rock-6664b6ac1a5346e7815f718a5602a755",
      "title": "Low poly rock"
    },
    "generator": "Sketchfab-15.12.0",
    "version": "2.0"
  },
  "bufferViews": [
    {
      "buffer": 0,
      "byteLength": 648,
      "name": "floatBufferViews",
      "target": 34963
    },
    {
      "buffer": 0,
      "byteLength": 3888,
      "byteOffset": 648,
      "byteStride": 12,
      "name": "floatBufferViews",
      "target": 34962
    }
  ],
  "buffers": [
    {
      "byteLength": 4536,
      "uri": "scene.bin"
    }
  ],
  "materials": [
    {
      "doubleSided": true,
      "name": "aiStandardSurface1",
      "pbrMetallicRoughness": {
        "metallicFactor": 0.0,
        "roughnessFactor": 0.6
      }
    }
  ],
  "meshes": [
    {
      "name": "pPlatonic1_aiStandardSurface1_0",
      "primitives": [
        {
          "attributes": {
            "NORMAL": 1,
            "POSITION": 0
          },
          "indices": 2,
          "material": 0,
          "mode": 4
        }
      ]
    }
  ],
  "nodes": [
    {
      "children": [
        1
      ],
      "matrix": [
        1.0,
        0.0,
        0.0,
        0.0,
        0.0,
        2.220446049250313e-16,
        -1.0,
        0.0,
        0.0,
        1.0,
        2.220446049250313e-16,
        0.0,
        0.0,
        0.0,
        0.0,
        1.0
      ],
      "name": "Sketchfab_model"
    },
    {
      "children": [
        2
      ],
      "matrix": [
        0.009999999776482582,
        0.0,
        0.0,
        0.0,
        0.0,
        0.0,
        0.009999999776482582,
        0.0,
        0.0,
        -0.009999999776482582,
        0.0,
        0.0,
        0.0,
        0.0,
        0.0,
        1.0
      ],
      "name": "adc658d82bc44fa6820716c6ad405667.fbx"
    },
    {
      "children": [
        3
      ],
      "name": "RootNode"
    },
    {
      "children": [
        4
      ],
      "name": "pPlatonic1"
    },
    {
      "mesh": 0,
      "name": "pPlatonic1_aiStandardSurface1_0"
    }
  ],
  "scene": 0,
  "scenes": [
    {
      "name": "Sketchfab_Scene",
      "nodes": [
        0
      ]
    }
  ]
}
