{
  "accessors": [
    {
      "bufferView": 1,
      "componentType": 5126,
      "count": 360,
      "max": [
        1.074489951133728,
        1.0307199954986572,
        3.233829975128174
      ],
      "min": [
        -1.714959979057312,
        -1.7514100074768066,
        -0.9942799806594849
      ],
      "type": "VEC3"
    },
    {
      "bufferView": 1,
      "byteOffset": 4320,
      "componentType": 5126,
      "count": 360,
      "max": [
        0.9943991899490356,
        0.9948487877845764,
        0.9928179979324341
      ],
      "min": [
        -0.9458731412887573,
        -0.9994332194328308,
        -0.9998996257781982
      ],
      "type": "VEC3"
    },
    {
      "bufferView": 0,
      "componentType": 5125,
      "count": 360,
      "type": "SCALAR"
    }
  ],
  "asset": {
    "extras": {
      "author": "lesha.school (https://sketchfab.com/lesha.school)",
      "license": "CC-BY-4.0 (http://creativecommons.org/licenses/by/4.0/)",
      "source": "https://sketchfab.com/3d-models/cloud1-41d255cae8c24c7b9844c18be6e5718a",
      "title": "Cloud1"
    },
    "generator": "Sketchfab-12.68.0",
    "version": "2.0"
  },
  "bufferViews": [
    {
      "buffer": 0,
      "byteLength": 1440,
      "name": "floatBufferViews",
      "target": 34963
    },
    {
      "buffer": 0,
      "byteLength": 8640,
      "byteOffset": 1440,
      "byteStride": 12,
      "name": "floatBufferViews",
      "target": 34962
    }
  ],
  "buffers": [
    {
      "byteLength": 10080,
      "uri": "scene.bin"
    }
  ],
  "materials": [
    {
      "doubleSided": true,
      "name": "Material.001",
      "pbrMetallicRoughness": {
        "baseColorFactor": [
          0.800000011920929,
          0.800000011920929,
          0.800000011920929,
          1.0
        ],
        "metallicFactor": 0.0,
        "roughnessFactor": 0.6
      }
    }
  ],
  "meshes": [
    {
      "name": "Icosphere.001_0",
      "primitives": [
        {
          "attributes": {
            "NORMAL": 1,
            "POSITION": 0
          },
          "indices": 2,
          "material": 0,
          "mode": 4
        }
      ]
    }
  ],
  "nodes": [
    {
      "children": [
        1
      ],
      "matrix": [
        0.16552631556987762,
        0.0,
        0.0,
        0.0,
        0.0,
        3.6754225345409536e-17,
        -0.16552631556987762,
        0.0,
        0.0,
        0.16552631556987762,
        3.6754225345409536e-17,
        0.0,
        0.0,
        0.0,
        0.0,
        1.0
      ],
      "name": "Sketchfab_model"
    },
    {
      "children": [
        2,
        4
      ],
      "name": "Root"
    },
    {
      "children": [
        3
      ],
      "matrix": [
        1.46284,
        0.38121000000000005,
        1.3714,
        0.0,
        -1.4205299999999998,
        0.5158400000000001,
        1.3718599999999999,
        0.0,
        -0.09037000000000002,
        -1.9376699999999998,
        0.6350100000000001,
        0.0,
        0.0,
        2.46468,
        0.0,
        1.0
      ],
      "name": "Icosphere.001"
    },
    {
      "mesh": 0,
      "name": "Icosphere.001_0"
    },
    {
      "children": [
        5
      ],
      "matrix": [
        -0.29086000000000006,
        0.9551700000000001,
        -0.05519000000000001,
        0.0,
        -0.7711,
        -0.19988000000000003,
        0.6045200000000001,
        0.0,
        0.5663900000000001,
        0.21839000000000003,
        0.7946700000000001,
        0.0,
        4.076250000000001,
        1.00545,
        5.903860000000001,
        1.0
      ],
      "name": "Lamp"
    },
    {
      "name": "Lamp"
    }
  ],
  "scene": 0,
  "scenes": [
    {
      "name": "Sketchfab_Scene",
      "nodes": [
        0
      ]
    }
  ]
}
