<?xml version="1.0" ?>
<!DOCTYPE svg  PUBLIC '-//W3C//DTD SVG 1.1//EN'  'http://www.w3.org/Graphics/SVG/1.1/DTD/svg11.dtd'>
<svg id="Layer_1" style="enable-background:new 0 0 64 64;" version="1.1" viewBox="0 0 64 64" xml:space="preserve" xmlns="http://www.w3.org/2000/svg" xmlns:xlink="http://www.w3.org/1999/xlink">
	<style type="text/css">.st0{fill:#134563;}</style>
	<g>
		<g id="Icon-Eye" transform="translate(278.000000, 484.000000)">
			<path class="st0" d="M-246-436.6c-16.2,0-23.5-14.3-23.8-14.9c-0.2-0.4-0.2-0.8,0-1.2c0.3-0.6,7.6-14.9,23.8-14.9     s23.5,14.3,23.8,14.9c0.2,0.4,0.2,0.8,0,1.2C-222.5-450.8-229.8-436.6-246-436.6L-246-436.6z M-267.1-452     c1.5,2.6,8.4,12.8,21.1,12.8c12.7,0,19.6-10.2,21.1-12.8c-1.5-2.6-8.4-12.8-21.1-12.8C-258.7-464.8-265.6-454.6-267.1-452     L-267.1-452z" id="Fill-174"/><path class="st0" d="M-246-439.4c-7,0-12.6-5.7-12.6-12.6s5.7-12.6,12.6-12.6s12.6,5.7,12.6,12.6     S-239-439.4-246-439.4L-246-439.4z M-246-462c-5.5,0-10,4.5-10,10s4.5,10,10,10s10-4.5,10-10S-240.5-462-246-462L-246-462z" id="Fill-175"/><path class="st0" d="M-246-445c-3.8,0-7-3.1-7-7c0-0.7,0.6-1.3,1.3-1.3c0.7,0,1.3,0.6,1.3,1.3     c0,2.4,1.9,4.3,4.3,4.3s4.3-1.9,4.3-4.3s-1.9-4.3-4.3-4.3c-0.7,0-1.3-0.6-1.3-1.3c0-0.7,0.6-1.3,1.3-1.3c3.8,0,7,3.1,7,7     S-242.2-445-246-445" id="Fill-176"/>
		</g>
	</g>
</svg>