<?xml version="1.0" ?>
<!DOCTYPE svg  PUBLIC '-//W3C//DTD SVG 1.1//EN'  'http://www.w3.org/Graphics/SVG/1.1/DTD/svg11.dtd'>
<svg enable-background="new 0 0 32 32" height="32px" id="Layer_1" version="1.1" viewBox="0 0 32 32" width="32px" xml:space="preserve" xmlns="http://www.w3.org/2000/svg" xmlns:xlink="http://www.w3.org/1999/xlink">
  <defs>
    <style>.cls-1{fill:#fff;}</style>
  </defs>
  <g>
    <polyline fill="none" points="   649,137.999 675,137.999 675,155.999 661,155.999  " stroke="#FFFFFF" stroke-linecap="round" stroke-linejoin="round" stroke-miterlimit="10" stroke-width="2"/>
    <polyline fill="none" points="   653,155.999 649,155.999 649,141.999  " stroke="#FFFFFF" stroke-linecap="round" stroke-linejoin="round" stroke-miterlimit="10" stroke-width="2"/>
    <polyline fill="none" points="   661,156 653,162 653,156  " stroke="#FFFFFF" stroke-linecap="round" stroke-linejoin="round" stroke-miterlimit="10" stroke-width="2"/>
  </g>
  <g>
    <g>
      <path class="cls-1" d="M16,25c-4.265,0-8.301-1.807-11.367-5.088c-0.377-0.403-0.355-1.036,0.048-1.413c0.404-0.377,1.036-0.355,1.414,0.048    C8.778,21.419,12.295,23,16,23c4.763,0,9.149-2.605,11.84-7c-2.69-4.395-7.077-7-11.84-7c-4.938,0-9.472,2.801-12.13,7.493    c-0.272,0.481-0.884,0.651-1.363,0.377c-0.481-0.272-0.649-0.882-0.377-1.363C5.147,10.18,10.333,7,16,7    c5.668,0,10.853,3.18,13.87,8.507c0.173,0.306,0.173,0.68,0,0.985C26.853,21.819,21.668,25,16,25z"/>
    </g>
    <g>
      <path class="cls-1" d="M16,21c-2.757,0-5-2.243-5-5s2.243-5,5-5s5,2.243,5,5S18.757,21,16,21z M16,13c-1.654,0-3,1.346-3,3s1.346,3,3,3    s3-1.346,3-3S17.654,13,16,13z"/>
    </g>
  </g>
</svg>